# xmcd
#
# Track frame offsets:
# 150
# 12680
# 31003
# 44491
# 57808
# 70057
# 88823
# 99331
# 108767
# 118084
# 133666
# 150633
# 171605
#
# Disc length: 2501 seconds
#
#
# Revision: 3
# Processed by: cddbd v1.5.1PL0 Copyright (c) Steve Scherf et al.
# Submitted via: FreeRIP 2.931 
#
DISCID=ac09c30d
DTITLE=Holly Golightly - Truly She Is None Other
DYEAR=2003
DGENRE=Rock
TTITLE0=Walk A Mile
TTITLE1=All Around The Houses
TTITLE2=Without You Here
TTITLE3=One Neck
TTITLE4=Time Will Tell
TTITLE5=Black Night
TTITLE6=It's All Me
TTITLE7=She Said
TTITLE8=Tell Me Now So I Know
TTITLE9=You Have Yet To Win
TTITLE10=Sent
TTITLE11=This Ship
TTITLE12=There's An End
EXTD=
EXTT0=
EXTT1=
EXTT2=
EXTT3=
EXTT4=
EXTT5=
EXTT6=
EXTT7=
EXTT8=
EXTT9=
EXTT10=
EXTT11=
EXTT12=
PLAYORDER=
